<?xml version="1.0" encoding="UTF-8"?>
<svg version="1.1" xmlns="http://www.w3.org/2000/svg" width="1024" height="1024">
<path d="M0 0 C337.92 0 675.84 0 1024 0 C1024 337.92 1024 675.84 1024 1024 C686.08 1024 348.16 1024 0 1024 C0 686.08 0 348.16 0 0 Z " fill="#F7F5F4" transform="translate(0,0)"/>
<path d="M0 0 C3.9827585 -0.22437536 7.96302306 -0.3866231 11.95068359 -0.49438477 C13.96453152 -0.5613211 15.97662057 -0.67575397 17.98828125 -0.79101562 C27.61387881 -1.00867989 27.61387881 -1.00867989 31.62542725 1.91052246 C33.65873407 4.18058141 35.35192229 6.44051652 37 9 C37.91939167 10.26222924 38.84076085 11.52302506 39.765625 12.78125 C40.59978482 14.01678035 41.42780274 15.25647697 42.25 16.5 C43.19298902 17.897825 44.13703619 19.29493664 45.08203125 20.69140625 C45.80060303 21.75705811 45.80060303 21.75705811 46.53369141 22.84423828 C48.95694554 26.40689796 51.44626928 29.92218681 53.9375 33.4375 C54.43604492 34.14197266 54.93458984 34.84644531 55.44824219 35.57226562 C56.45981182 37.00136013 57.47169369 38.43023368 58.48388672 39.85888672 C60.99343931 43.40297306 63.49635506 46.95173925 66 50.5 C66.9882687 51.89974844 67.97654999 53.299488 68.96484375 54.69921875 C71.08364837 57.70068569 73.20052352 60.70350388 75.31640625 63.70703125 C75.85974609 64.47789062 76.40308594 65.24875 76.96289062 66.04296875 C78.00244055 67.51788574 79.04152903 68.99312812 80.08007812 70.46875 C83.75254773 75.97028536 83.75254773 75.97028536 88 81 C87.99111755 80.31032639 87.98223511 79.62065277 87.9730835 78.91007996 C87.89245789 72.36490269 87.83179461 65.81986688 87.79275131 59.27430248 C87.77200279 55.91027075 87.74392409 52.5466542 87.69824219 49.18286133 C87.64937296 45.30278844 87.62694995 41.42329474 87.609375 37.54296875 C87.58872986 36.35293747 87.56808472 35.16290619 87.54681396 33.93681335 C87.54416314 23.93142087 89.34888716 14.88092611 96.42578125 7.4296875 C101.98733333 2.37874938 107.39770559 -0.25970499 114.8918457 -0.22705078 C116.05267166 -0.22689972 117.21349762 -0.22674866 118.40950012 -0.22659302 C119.65237289 -0.21627045 120.89524567 -0.20594788 122.17578125 -0.1953125 C124.09622505 -0.19106766 124.09622505 -0.19106766 126.0554657 -0.18673706 C129.44703075 -0.1791278 132.8384225 -0.15950293 136.22991943 -0.1373291 C139.69557306 -0.11681206 143.16125572 -0.10761302 146.62695312 -0.09765625 C153.41812144 -0.07731732 160.20881484 -0.03816464 167 0 C167 8.91 167 17.82 167 27 C161.96298828 27.16435547 161.96298828 27.16435547 156.82421875 27.33203125 C153.57741638 27.44780148 150.33083258 27.56850772 147.08422852 27.68969727 C144.82529493 27.77136503 142.56616932 27.84788828 140.30688477 27.91918945 C137.06202143 28.02248368 133.81829531 28.14417553 130.57421875 28.26953125 C129.56163498 28.29779495 128.54905121 28.32605865 127.50578308 28.35517883 C126.56503433 28.39499374 125.62428558 28.43480865 124.6550293 28.47583008 C123.82674118 28.50469803 122.99845306 28.53356598 122.14506531 28.56330872 C119.4568456 29.11057509 118.54500564 29.73688934 117 32 C116.64920101 34.38523141 116.64920101 34.38523141 116.85327148 37.07543945 C116.89157578 38.11114578 116.92988007 39.14685211 116.96934509 40.21394348 C117.01942215 41.33572495 117.06949921 42.45750641 117.12109375 43.61328125 C117.17195645 46.00055672 117.21802188 48.38793829 117.25976562 50.77539062 C117.33531223 54.53389546 117.43602763 58.28250806 117.62036133 62.03735352 C118.55831204 82.28179191 118.55831204 82.28179191 114.30740356 88.45999146 C110.19489043 92.68101039 105.49643153 95.70332645 100.38661194 98.58302307 C96.35239292 100.97821568 92.74152859 103.91306554 89.0625 106.8125 C82.51933775 111.82688742 82.51933775 111.82688742 79 113 C78.44054687 112.20980469 77.88109375 111.41960937 77.3046875 110.60546875 C70.58705327 101.14503876 63.72087214 91.79844958 56.82324219 82.46875 C55.01706738 80.02310998 53.21484358 77.57461363 51.4140625 75.125 C50.82077148 74.31828857 50.22748047 73.51157715 49.61621094 72.68041992 C48.51742104 71.18614577 47.41905587 69.69155912 46.32128906 68.1965332 C42.49945703 63.00326144 38.63662841 57.84134437 34.76611328 52.68432617 C33.9329232 51.57382023 33.9329232 51.57382023 33.082901 50.44087982 C31.72206821 48.62715244 30.3610977 46.81352859 29 45 C28.90716734 57.49172879 28.83616748 69.98337501 28.79275131 82.47537899 C28.77190979 88.27643489 28.74365456 94.07725412 28.69824219 99.87817383 C28.65466245 105.48028948 28.63083707 111.08217801 28.62049103 116.68445015 C28.61312145 118.81781144 28.59873046 120.95116082 28.57707977 123.08442497 C28.54788496 126.08121111 28.54405076 129.0770683 28.54589844 132.07397461 C28.53151733 132.94863876 28.51713623 133.82330292 28.50231934 134.72447205 C28.55093975 142.05066029 30.9225058 147.42670997 34.5625 153.6875 C38.46706556 157.39183143 43.21583579 159.59966934 48 162 C47.90074219 160.93652344 47.80148438 159.87304688 47.69921875 158.77734375 C48 155 48 155 50.01953125 152.62890625 C50.94121094 151.94699219 51.86289063 151.26507812 52.8125 150.5625 C54.30716797 149.43521484 54.30716797 149.43521484 55.83203125 148.28515625 C56.87746094 147.53105469 57.92289063 146.77695312 59 146 C60.01449219 145.23558594 61.02898437 144.47117187 62.07421875 143.68359375 C69.43911638 138.18696121 69.43911638 138.18696121 73 137 C73 146.24 73 155.48 73 165 C77.62 165 82.24 165 87 165 C86.9057373 163.89188965 86.81147461 162.7837793 86.71435547 161.64208984 C84.33963638 131.15081351 84.33963638 131.15081351 88.60546875 122.89160156 C92.55278692 118.36346372 97.36327919 115.59488496 102.76416016 113.07714844 C105.84464834 111.59307835 108.34597897 109.695108 111.0625 107.625 C114.84482759 105 114.84482759 105 116 105 C116 124.8 116 144.6 116 165 C120.62 165 125.24 165 130 165 C129.96002899 163.92861786 129.92005798 162.85723572 129.87887573 161.75338745 C129.51232848 151.60486771 129.24340718 141.4577059 129.06738091 131.30404472 C128.97382416 126.0844722 128.84723321 120.87028196 128.64208984 115.65380859 C127.241929 79.10021656 127.241929 79.10021656 133.73535156 71.32836914 C137.39001281 68.07775026 141.32987527 65.88625047 145.81304932 63.97229004 C148.75835524 62.66284505 151.11799475 60.83198713 153.625 58.82421875 C155.08083082 57.77516419 156.53899768 56.72934022 158 55.6875 C158.76054687 55.13900391 159.52109375 54.59050781 160.3046875 54.02539062 C165.70784439 50.14607781 165.70784439 50.14607781 168 49 C168.33 96.52 168.66 144.04 169 193 C150.355 193.0825 131.71 193.165 112.5 193.25 C103.7127832 193.30462402 103.7127832 193.30462402 94.74804688 193.36035156 C87.52050781 193.37841797 87.52050781 193.37841797 84.12268066 193.3817749 C81.78085274 193.38786357 79.4390363 193.40181877 77.09729004 193.42230225 C54.27246101 193.61174048 34.51650178 191.91311841 17.21484375 175.3125 C3.38078376 160.86847264 -0.51046951 144.33114274 -0.34057617 124.65087891 C-0.3397271 123.27937336 -0.34021048 121.90786646 -0.34190369 120.53636169 C-0.34275418 116.86156438 -0.32528462 113.187069 -0.30418181 109.51234102 C-0.28525455 105.65402596 -0.28365207 101.79570174 -0.28010559 97.93734741 C-0.27083176 90.6526834 -0.24628211 83.36815666 -0.21605712 76.08355272 C-0.18236672 67.78110802 -0.16599054 59.47865629 -0.15097082 51.1761601 C-0.1197276 34.11736106 -0.06705926 17.05869511 0 0 Z " fill="#1C2F45" transform="translate(130,408)"/>
<path d="M0 0 C21 0 21 0 26.2421875 4.87890625 C27.53054599 7.06291235 28.73916127 9.29542686 29.875 11.5625 C30.54670591 12.75324766 31.22673124 13.93933656 31.91455078 15.12084961 C33.31385341 17.5408424 34.67376844 19.97706409 36.0078125 22.43359375 C38.98162947 27.84477443 42.44596869 32.93292414 45.875 38.0625 C47.1041896 39.94229519 48.3308207 41.82376625 49.5546875 43.70703125 C50.42432129 45.04241943 50.42432129 45.04241943 51.31152344 46.40478516 C53.87860867 50.35043524 56.44139038 54.29884889 59 58.25 C59.40847168 58.88043213 59.81694336 59.51086426 60.23779297 60.16040039 C63.8555143 65.75483759 67.4228761 71.37880529 71 77 C71.33 51.59 71.66 26.18 72 0 C78.93 0 85.86 0 93 0 C93 37.62 93 75.24 93 114 C73 114 73 114 68.375 109.5 C67.19984362 107.36012222 66.07884846 105.19001266 65 103 C63.87242072 101.11780997 62.69807724 99.27080008 61.5168457 97.421875 C60.21049454 95.37561902 58.93428958 93.31253928 57.66015625 91.24609375 C55.0851145 87.10544173 52.40216058 83.05075242 49.6875 79 C40.36599947 65.06130762 31.20006251 51.01914288 22 37 C21.67 62.41 21.34 87.82 21 114 C14.07 114 7.14 114 0 114 C0 76.38 0 38.76 0 0 Z " fill="#1A2C42" transform="translate(346,445)"/>
<path d="M0 0 C8.57944151 4.75846508 12.83564505 11.2299392 16.359375 20.30859375 C18.359375 28.30859375 18.359375 28.30859375 18.359375 47.30859375 C-0.450625 47.30859375 -19.260625 47.30859375 -38.640625 47.30859375 C-36.5601159 55.63063014 -34.75403723 60.5111762 -27.640625 65.30859375 C-20.70641849 69.27099747 -13.3860571 69.46844969 -5.66796875 67.58203125 C0.10233591 65.6294935 4.54641163 62.99511888 9.359375 59.30859375 C10.019375 59.30859375 10.679375 59.30859375 11.359375 59.30859375 C11.359375 65.24859375 11.359375 71.18859375 11.359375 77.30859375 C-2.69055883 83.98231232 -18.4574471 87.81885289 -33.828125 82.74609375 C-46.09775878 77.26514449 -52.74131746 68.28649554 -57.66015625 56.140625 C-62.07951136 43.37555545 -60.14633285 30.33239402 -54.640625 18.30859375 C-52.61392078 14.94359078 -50.37252151 12.12345458 -47.640625 9.30859375 C-47.11855469 8.74785156 -46.59648437 8.18710937 -46.05859375 7.609375 C-34.60623948 -3.45287474 -14.45380268 -6.3290136 0 0 Z " fill="#1B2D42" transform="translate(513.640625,475.69140625)"/>
<path d="M0 0 C24.09 0 48.18 0 73 0 C73.495 9.405 73.495 9.405 74 19 C56.51 19 39.02 19 21 19 C21 29.23 21 39.46 21 50 C36.51 50 52.02 50 68 50 C68 55.61 68 61.22 68 67 C52.16 67 36.32 67 20 67 C20 82.51 20 98.02 20 114 C13.4 114 6.8 114 0 114 C0 76.38 0 38.76 0 0 Z " fill="#1C2E43" transform="translate(705,445)"/>
<path d="M0 0 C1.05840088 0.00737183 1.05840088 0.00737183 2.13818359 0.01489258 C9.47729407 0.17942771 16.17356196 1.4241095 21.7734375 6.5234375 C27.3557619 13.58615732 30.31910609 21.56230617 30.30102539 30.45800781 C30.30091209 32.31948456 30.30091209 32.31948456 30.30079651 34.21856689 C30.29569031 35.56758667 30.29047432 36.91660604 30.28515625 38.265625 C30.28329024 39.64996286 30.2818672 41.03430138 30.28086853 42.41864014 C30.27705773 46.05511308 30.26723975 49.69154582 30.25616455 53.32800293 C30.2459195 57.04157976 30.24136429 60.7551631 30.23632812 64.46875 C30.22561615 71.75002041 30.20803103 79.03124944 30.1875 86.3125 C23.9175 86.3125 17.6475 86.3125 11.1875 86.3125 C11.1781543 84.65798828 11.16880859 83.00347656 11.15917969 81.29882812 C11.11920853 75.1410055 11.05342835 68.9836787 10.97998047 62.82617188 C10.94962477 60.16458389 10.93057886 57.5035998 10.91650391 54.84179688 C10.89501785 51.00868357 10.84833437 47.17656398 10.796875 43.34375 C10.79564636 42.16010864 10.79441772 40.97646729 10.79315186 39.75695801 C10.67153661 32.84588312 9.99317016 28.15279961 6.1875 22.3125 C0.86974044 18.90913388 -4.59605111 18.34406212 -10.8125 19.3125 C-15.8694474 20.92413338 -19.72002215 22.39075183 -22.41357422 27.12890625 C-24.6143783 32.54925627 -24.29265252 38.26271328 -24.32421875 44.02734375 C-24.34216995 45.23822159 -24.36012115 46.44909943 -24.37861633 47.69667053 C-24.43261128 51.5477454 -24.46658149 55.39869705 -24.5 59.25 C-24.53318249 61.86785564 -24.56767301 64.48569505 -24.60351562 67.10351562 C-24.68833209 73.50642139 -24.75519564 79.90929129 -24.8125 86.3125 C-31.0825 86.3125 -37.3525 86.3125 -43.8125 86.3125 C-43.8125 58.5925 -43.8125 30.8725 -43.8125 2.3125 C-37.5425 2.3125 -31.2725 2.3125 -24.8125 2.3125 C-24.4825 4.6225 -24.1525 6.9325 -23.8125 9.3125 C-23.16023437 8.83039063 -22.50796875 8.34828125 -21.8359375 7.8515625 C-20.96195313 7.21992188 -20.08796875 6.58828125 -19.1875 5.9375 C-18.32898438 5.31101562 -17.47046875 4.68453125 -16.5859375 4.0390625 C-11.21136792 0.69320369 -6.24458057 -0.05125816 0 0 Z " fill="#192A3F" transform="translate(873.8125,472.6875)"/>
<path d="M0 0 C0.10585451 22.96895829 -0.19754382 45.93377474 -0.46356201 68.90075684 C-0.52492024 74.22484183 -0.58464887 79.54894511 -0.64453125 84.87304688 C-0.76146256 95.24871617 -0.88029702 105.62436231 -1 116 C-12.88 116 -24.76 116 -37 116 C-37.11301645 104.76025351 -37.20472526 93.52088515 -37.25906086 82.28069878 C-37.28514088 77.06126652 -37.32051016 71.84224357 -37.37719727 66.62304688 C-37.43157339 61.58502308 -37.46143254 56.54739267 -37.47438622 51.50909805 C-37.483616 49.58814426 -37.50163994 47.6672117 -37.52865028 45.74642563 C-37.56501539 43.05297282 -37.56994229 40.36113977 -37.56762695 37.66748047 C-37.59459152 36.47956657 -37.59459152 36.47956657 -37.62210083 35.26765442 C-37.56851962 29.49678155 -36.0986076 27.05938037 -32 23 C-29.87866211 21.17651367 -29.87866211 21.17651367 -27.77734375 19.66796875 C-26.99665527 19.10094238 -26.2159668 18.53391602 -25.41162109 17.94970703 C-24.59516113 17.36817871 -23.77870117 16.78665039 -22.9375 16.1875 C-21.24053342 14.96012194 -19.54391897 13.73225687 -17.84765625 12.50390625 C-17.02281738 11.90980957 -16.19797852 11.31571289 -15.34814453 10.70361328 C-11.200149 7.69418172 -7.13108062 4.58184811 -3.0546875 1.4765625 C-1 0 -1 0 0 0 Z " fill="#338367" transform="translate(298,457)"/>
<path d="M0 0 C19.31788932 -2.5325356 19.31788932 -2.5325356 25.07226562 1.42529297 C28.52076107 5.13332051 30.82203162 9.47329484 33.015625 14.0078125 C34.31578883 16.63909644 35.90020806 19.02247208 37.5625 21.4375 C37.99691406 22.11683594 38.43132813 22.79617188 38.87890625 23.49609375 C39.94311048 25.15897997 39.94311048 25.15897997 42 26 C42.26353271 25.27458008 42.52706543 24.54916016 42.79858398 23.80175781 C44.01758775 20.95898455 45.4389521 18.69342877 47.22265625 16.171875 C47.84333984 15.29015625 48.46402344 14.4084375 49.10351562 13.5 C49.74998047 12.5925 50.39644531 11.685 51.0625 10.75 C51.71283203 9.82703125 52.36316406 8.9040625 53.03320312 7.953125 C57.81731673 1.18268327 57.81731673 1.18268327 59 0 C60.63472882 -0.08700342 62.27314055 -0.10701063 63.91015625 -0.09765625 C64.89951172 -0.09443359 65.88886719 -0.09121094 66.90820312 -0.08789062 C67.94912109 -0.07951172 68.99003906 -0.07113281 70.0625 -0.0625 C71.62967773 -0.05573242 71.62967773 -0.05573242 73.22851562 -0.04882812 C75.8190666 -0.03699913 78.40950559 -0.02051689 81 0 C78.49158274 4.56282235 75.86671165 8.65637095 72.625 12.75 C68.12930097 18.48991223 63.76338296 24.31863398 59.4375 30.1875 C58.81762207 31.02571289 58.19774414 31.86392578 57.55908203 32.72753906 C56.9814209 33.51225586 56.40375977 34.29697266 55.80859375 35.10546875 C55.03213501 36.15963989 55.03213501 36.15963989 54.23999023 37.23510742 C52.94652348 38.98339995 52.94652348 38.98339995 52 41 C58.28746494 49.94972487 64.60389833 58.87748484 71 67.75 C71.53906982 68.49942871 72.07813965 69.24885742 72.63354492 70.02099609 C74.8117439 73.03591094 76.98141797 75.97787272 79.375 78.828125 C81 81 81 81 81 84 C77.417094 84.14533755 73.83494583 84.23407931 70.25 84.3125 C69.23421875 84.35439453 68.2184375 84.39628906 67.171875 84.43945312 C66.1921875 84.45556641 65.2125 84.47167969 64.203125 84.48828125 C63.30239258 84.51446533 62.40166016 84.54064941 61.47363281 84.56762695 C57.92531116 83.75339009 57.00722098 81.96354772 55 79 C54.43651855 78.18176758 53.87303711 77.36353516 53.29248047 76.52050781 C52.73963379 75.67327148 52.18678711 74.82603516 51.6171875 73.953125 C50.70259766 72.56287109 50.70259766 72.56287109 49.76953125 71.14453125 C48.49700716 69.20032434 47.22619795 67.25499401 45.95703125 65.30859375 C45.34988281 64.38691406 44.74273438 63.46523438 44.1171875 62.515625 C43.56659668 61.67290039 43.01600586 60.83017578 42.44873047 59.96191406 C41.1421803 57.88198068 41.1421803 57.88198068 39 57 C38.67128906 58.00740234 38.67128906 58.00740234 38.3359375 59.03515625 C36.58773967 62.91492862 34.18626192 66.05730828 31.625 69.4375 C30.65760527 70.72692854 29.69144145 72.01728157 28.7265625 73.30859375 C28.03095215 74.23647705 28.03095215 74.23647705 27.32128906 75.18310547 C26.07799782 76.89274578 24.91771603 78.63329001 23.7734375 80.41015625 C22 83 22 83 20 84 C18.40552536 84.08400529 16.80759455 84.10727467 15.2109375 84.09765625 C14.26992188 84.09443359 13.32890625 84.09121094 12.359375 84.08789062 C11.37453125 84.07951172 10.3896875 84.07113281 9.375 84.0625 C8.38242187 84.05798828 7.38984375 84.05347656 6.3671875 84.04882812 C3.9113984 84.03702145 1.45572896 84.020554 -1 84 C0.44020131 79.77181539 2.53321658 76.79229021 5.3125 73.3125 C9.63564636 67.82393445 13.79024331 62.23065734 17.875 56.5625 C18.42196533 55.80557861 18.96893066 55.04865723 19.5324707 54.26879883 C20.56372572 52.83559108 21.58812419 51.39741641 22.60449219 49.95361328 C23.4876554 48.71724659 24.39711629 47.49890461 25.34082031 46.30810547 C26.6745548 44.64206514 26.6745548 44.64206514 28 42 C27.19409006 37.04118677 23.06123221 32.66758403 20.125 28.6875 C19.55362305 27.90366943 18.98224609 27.11983887 18.39355469 26.31225586 C15.46412147 22.30582514 12.5006013 18.326486 9.5078125 14.3671875 C8.9597998 13.64184814 8.41178711 12.91650879 7.84716797 12.16918945 C6.80108922 10.78939528 5.7507816 9.41279462 4.69580078 8.03979492 C2.66883782 5.37581611 1.06658823 3.1997647 0 0 Z " fill="#1A2C41" transform="translate(541,475)"/>
<path d="M0 0 C6.6 0 13.2 0 20 0 C20.495 11.385 20.495 11.385 21 23 C27.93 23.33 34.86 23.66 42 24 C42.495 31.92 42.495 31.92 43 40 C35.74 40 28.48 40 21 40 C21.07417648 45.71158878 21.1571655 51.42166221 21.26245117 57.13256836 C21.29560159 59.07324235 21.323664 61.01401046 21.34643555 62.95483398 C21.38016384 65.75284747 21.43248819 68.5500061 21.48828125 71.34765625 C21.49467117 72.2083522 21.5010611 73.06904816 21.50764465 73.95582581 C21.63794607 79.35585998 22.44352556 83.21319528 25 88 C28.68532711 91.09517251 31.5893081 91.34320962 36.3125 91.1875 C38.189375 91.125625 40.06625 91.06375 42 91 C42 96.61 42 102.22 42 108 C36.77928077 109.04414385 31.98605301 109.29365445 26.6875 109.375 C25.77548828 109.41238281 24.86347656 109.44976563 23.92382812 109.48828125 C16.03885403 109.59002285 11.28793011 107.19906713 5.6875 101.75 C1.11456458 94.29780895 0.57749876 86.98017503 0.70703125 78.40234375 C0.71127609 77.32747208 0.71552094 76.2526004 0.71989441 75.14515686 C0.73656661 71.74234002 0.77419777 68.34013512 0.8125 64.9375 C0.82756163 62.61784715 0.84124744 60.29818493 0.85351562 57.97851562 C0.88643263 52.31877787 0.93813549 46.65949236 1 41 C-3.95 41 -8.9 41 -14 41 C-14 35.39 -14 29.78 -14 24 C-9.38 24 -4.76 24 0 24 C0 16.08 0 8.16 0 0 Z " fill="#1B2D43" transform="translate(645,451)"/>
<path d="M0 0 C6.6 0 13.2 0 20 0 C20 27.72 20 55.44 20 84 C13.4 84 6.8 84 0 84 C0 56.28 0 28.56 0 0 Z " fill="#192B42" transform="translate(793,475)"/>
<path d="M0 0 C0.66 0.33 1.32 0.66 2 1 C2 20.14 2 39.28 2 59 C-6.91 59 -15.82 59 -25 59 C-25.11506655 53.69671079 -25.21451094 48.39778332 -25.2746582 43.09423828 C-25.29973866 41.29200534 -25.33381188 39.48987349 -25.37719727 37.68798828 C-25.4381375 35.09121723 -25.46627346 32.49579535 -25.48828125 29.8984375 C-25.51408768 29.0982016 -25.5398941 28.2979657 -25.56648254 27.47348022 C-25.56846942 23.47329515 -25.30351783 20.84972148 -22.75756836 17.66967773 C-20.37809299 15.36604221 -18.07561903 13.31659363 -15.390625 11.38671875 C-14.55402344 10.77892578 -13.71742188 10.17113281 -12.85546875 9.54492188 C-11.99566406 8.93197266 -11.13585937 8.31902344 -10.25 7.6875 C-8.52569479 6.44188629 -6.80171818 5.19581754 -5.078125 3.94921875 C-4.31918945 3.40612061 -3.56025391 2.86302246 -2.77832031 2.3034668 C-1.06974251 1.12050472 -1.06974251 1.12050472 0 0 Z " fill="#2B7A5E" transform="translate(243,514)"/>
<path d="M0 0 C0.33 0 0.66 0 1 0 C1.33 2.64 1.66 5.28 2 8 C5.15899632 6.56409258 7.65685561 5.34314439 10.125 2.875 C12.13586941 0.86413059 13.22947029 0.38214203 16 0 C16.33 0 16.66 0 17 0 C17 17.82 17 35.64 17 54 C11.39 54 5.78 54 0 54 C0 36.18 0 18.36 0 0 Z M1 10 C2 13 2 13 2 13 Z " fill="#1C3047" transform="translate(831,504)"/>
<path d="M0 0 C3.38099995 2.43460894 4.83720385 4.57588773 6.828125 8.31640625 C7.323125 13.26640625 7.323125 13.26640625 7.828125 18.31640625 C-4.711875 18.31640625 -17.251875 18.31640625 -30.171875 18.31640625 C-29.17182221 10.31598391 -28.07541255 6.73000388 -22.234375 1.56640625 C-15.05668522 -3.70699849 -7.78581819 -4.39868075 0 0 Z " fill="#F6F5F4" transform="translate(505.171875,490.68359375)"/>
<path d="M0 0 C0.33 0 0.66 0 1 0 C1 36.3 1 72.6 1 110 C0.67 110 0.34 110 0 110 C-0.33 104.39 -0.66 98.78 -1 93 C-2.74433571 93.00333092 -2.74433571 93.00333092 -4.52391052 93.00672913 C-15.45769368 93.02695912 -26.39147306 93.04197145 -37.32527065 93.05181217 C-42.94707962 93.05704136 -48.56887353 93.06413966 -54.19067383 93.07543945 C-59.61118277 93.08626706 -65.0316772 93.09227656 -70.45219612 93.09487724 C-72.52514945 93.09673172 -74.59810194 93.10035277 -76.67104912 93.10573006 C-79.56383893 93.1129388 -82.45656796 93.11399101 -85.34936523 93.11352539 C-86.21538864 93.11712067 -87.08141205 93.12071594 -87.97367859 93.12442017 C-93.88594784 93.11405216 -93.88594784 93.11405216 -95 92 C-95.08775605 89.85441173 -95.10695219 87.70595579 -95.09765625 85.55859375 C-95.09443359 84.25341797 -95.09121094 82.94824219 -95.08789062 81.60351562 C-95.07953401 80.2148431 -95.07106905 78.82617123 -95.0625 77.4375 C-95.05748666 76.04492344 -95.05292347 74.65234519 -95.04882812 73.25976562 C-95.03699434 69.8398013 -95.0205088 66.41992156 -95 63 C-94.67 63 -94.34 63 -94 63 C-94 72.24 -94 81.48 -94 91 C-89.38 91 -84.76 91 -80 91 C-80 78.13 -80 65.26 -80 52 C-78.68 51.34 -77.36 50.68 -76 50 C-76.66 50.99 -77.32 51.98 -78 53 C-78.24121349 55.89659349 -78.37299442 58.7053355 -78.4140625 61.60546875 C-78.43342865 62.44467361 -78.4527948 63.28387848 -78.4727478 64.14851379 C-78.53251213 66.82807258 -78.57891612 69.5076744 -78.625 72.1875 C-78.6631827 74.00457599 -78.70223461 75.82163394 -78.7421875 77.63867188 C-78.83984704 82.09235386 -78.91943936 86.54584441 -79 91 C-70.09 91 -61.18 91 -52 91 C-52.33 71.53 -52.66 52.06 -53 32 C-52.34 31.67 -51.68 31.34 -51 31 C-51 50.8 -51 70.6 -51 91 C-46.38 91 -41.76 91 -37 91 C-37 61.96 -37 32.92 -37 3 C-35.68 2.34 -34.36 1.68 -33 1 C-33.66 1.99 -34.32 2.98 -35 4 C-35.21336225 6.80701718 -35.31128905 9.51811521 -35.31884766 12.3269043 C-35.33391609 13.60040237 -35.33391609 13.60040237 -35.34928894 14.89962769 C-35.38019692 17.70781777 -35.39717719 20.5159122 -35.4140625 23.32421875 C-35.43276803 25.27050097 -35.45234097 27.21677503 -35.4727478 29.16304016 C-35.52414002 34.28727412 -35.56372779 39.41153439 -35.60089111 44.53588867 C-35.64088634 49.76422676 -35.6919991 54.99245471 -35.7421875 60.22070312 C-35.8390308 70.4803992 -35.92238136 80.74014045 -36 91 C-24.12 91 -12.24 91 0 91 C0 60.97 0 30.94 0 0 Z " fill="#07392C" transform="translate(297,482)"/>
<path d="M0 0 C15.84 0 31.68 0 48 0 C48 5.61 48 11.22 48 17 C32.16 17 16.32 17 0 17 C0 16.67 0 16.34 0 16 C9.9 15.505 9.9 15.505 20 15 C20.33 14.34 20.66 13.68 21 13 C21.66 13 22.32 13 23 13 C23.33 11.35 23.66 9.7 24 8 C25.32 8 26.64 8 28 8 C28 6.35 28 4.7 28 3 C19.09 2.67 10.18 2.34 1 2 C0.67 1.34 0.34 0.68 0 0 Z " fill="#1A293B" transform="translate(725,495)"/>
<path d="M0 0 C0.33 0 0.66 0 1 0 C1 9.24 1 18.48 1 28 C-12.55474453 28 -12.55474453 28 -17.1875 27.0625 C-18.53908203 26.80146484 -18.53908203 26.80146484 -19.91796875 26.53515625 C-22 26 -22 26 -23 25 C-23.36328125 21.71484375 -23.36328125 21.71484375 -23 18 C-20.98046875 15.62890625 -20.98046875 15.62890625 -18.1875 13.5625 C-16.69669922 12.43521484 -16.69669922 12.43521484 -15.17578125 11.28515625 C-14.12777344 10.53105469 -13.07976562 9.77695312 -12 9 C-10.96230469 8.23558594 -9.92460937 7.47117187 -8.85546875 6.68359375 C-6.95089403 5.28823691 -5.038798 3.90305126 -3.1171875 2.53125 C-1.11694642 1.16980231 -1.11694642 1.16980231 0 0 Z " fill="#2B795D" transform="translate(201,545)"/>
<path d="M0 0 C3.90371556 1.66115556 5.39930166 3.14440488 7 7 C7.65393374 10.78593219 7.84305395 14.43710768 5.984375 17.8828125 C3.8456937 20.54972231 2.26074852 21.91308383 -1 23 C-5.25160217 23.40109454 -7.5006973 23.26378256 -11.3125 21.25 C-15.3390786 17.87891094 -15.84716223 16.353706 -16.4375 11.125 C-16.33897037 6.33287732 -14.35822174 4.27826408 -11 1 C-7.5507568 -0.7246216 -3.77868569 -0.36610104 0 0 Z " fill="#1A2A3F" transform="translate(807,442)"/>
<path d="M0 0 C0.33 0 0.66 0 1 0 C1.495 3.96 1.495 3.96 2 8 C2.33 8 2.66 8 3 8 C3 14.27 3 20.54 3 27 C-34.95 27 -72.9 27 -112 27 C-111.505 25.515 -111.505 25.515 -111 24 C-74.37 24 -37.74 24 0 24 C0 16.08 0 8.16 0 0 Z " fill="#485969" transform="translate(296,574)"/>
<path d="M0 0 C0.33 0 0.66 0 1 0 C2.13526671 29.33275543 2.10807267 58.64912614 2 88 C-2.29 88 -6.58 88 -11 88 C-11 67.87 -11 47.74 -11 27 C-10.67 27 -10.34 27 -10 27 C-10 46.47 -10 65.94 -10 86 C-6.7 86 -3.4 86 0 86 C0 57.62 0 29.24 0 0 Z " fill="#FCFCFC" transform="translate(258,485)"/>
<path d="M0 0 C1.32 0 2.64 0 4 0 C6.25 3 6.25 3 8 6 C7.67 6.66 7.34 7.32 7 8 C5.68 6.35 4.36 4.7 3 3 C2.67 35.34 2.34 67.68 2 101 C1.67 101 1.34 101 1 101 C0.06535863 95.48013878 -0.13707308 90.16849771 -0.11352539 84.57641602 C-0.11367142 83.6585582 -0.11381744 82.74070038 -0.1139679 81.79502869 C-0.11327493 78.78129661 -0.10551151 75.76762744 -0.09765625 72.75390625 C-0.09578988 70.65640802 -0.09436701 68.55890935 -0.09336853 66.46141052 C-0.0895606 60.95576767 -0.07974509 55.45015142 -0.06866455 49.94451904 C-0.0584133 44.32043823 -0.05386296 38.6963531 -0.04882812 33.07226562 C-0.03812123 22.04816543 -0.02106559 11.02408493 0 0 Z " fill="#152135" transform="translate(156,450)"/>
<path d="M0 0 C1.32 1.32 2.64 2.64 4 4 C3.01 4.495 3.01 4.495 2 5 C2.00222061 5.92485703 2.00444122 6.84971405 2.00672913 7.80259705 C2.02672913 16.49952587 2.04197264 25.19644702 2.05181217 33.89339352 C2.05704074 38.36505549 2.06413789 42.83669853 2.07543945 47.30834961 C2.08626929 51.62011973 2.09227704 55.93187159 2.09487724 60.24365425 C2.09673132 61.89236298 2.1003516 63.54107066 2.10573006 65.18977165 C2.11294178 67.49103872 2.11399089 69.7922294 2.11352539 72.09350586 C2.115746 73.4058873 2.11796661 74.71826874 2.12025452 76.07041931 C2 79 2 79 1 80 C-0.70772358 80.08713831 -2.41898649 80.10700007 -4.12890625 80.09765625 C-5.68061523 80.09282227 -5.68061523 80.09282227 -7.26367188 80.08789062 C-8.35228516 80.07951172 -9.44089844 80.07113281 -10.5625 80.0625 C-12.2012207 80.05573242 -12.2012207 80.05573242 -13.87304688 80.04882812 C-16.58208495 80.03699826 -19.29101599 80.02051543 -22 80 C-22 79.67 -22 79.34 -22 79 C-14.74 79 -7.48 79 0 79 C0 52.93 0 26.86 0 0 Z " fill="#FCFCFB" transform="translate(367,481)"/>
<path d="M0 0 C0.33 0 0.66 0 1 0 C1 13.2 1 26.4 1 40 C-3.62 40 -8.24 40 -13 40 C-13 30.76 -13 21.52 -13 12 C-12.34 12 -11.68 12 -11 12 C-11 20.58 -11 29.16 -11 38 C-7.7 38 -4.4 38 -1 38 C-1.00523682 36.88439697 -1.01047363 35.76879395 -1.01586914 34.61938477 C-1.03391775 30.49520667 -1.04543149 26.37103209 -1.05493164 22.24682617 C-1.05997218 20.45905979 -1.06680454 18.67129755 -1.07543945 16.88354492 C-1.0875173 14.31948832 -1.09323094 11.75548603 -1.09765625 9.19140625 C-1.10281754 8.3872377 -1.10797882 7.58306915 -1.11329651 6.75453186 C-1.11349215 4.83598285 -1.06201983 2.91754632 -1 1 C-0.67 0.67 -0.34 0.34 0 0 Z " fill="#FCFBFA" transform="translate(216,533)"/>
<path d="M0 0 C2.36171763 3.70630942 2.24176423 6.92131582 2.22705078 11.24707031 C2.22734283 11.96941864 2.22763489 12.69176697 2.22793579 13.43600464 C2.22654562 15.81683483 2.21099934 18.19734967 2.1953125 20.578125 C2.19158125 22.23150461 2.18873481 23.88488643 2.18673706 25.53826904 C2.17910938 29.88499074 2.15946833 34.23157829 2.1373291 38.57824707 C2.11685204 43.01568792 2.10773136 47.4531505 2.09765625 51.890625 C2.07622161 60.59381149 2.04209612 69.29688904 2 78 C0.51554871 76.95158386 0.51554871 76.95158386 -1 75 C-1.25132447 72.50228269 -1.32143687 70.26621879 -1.2487793 67.7746582 C-1.23946381 67.04270233 -1.23014832 66.31074646 -1.22055054 65.55661011 C-1.18617839 63.13752973 -1.13028654 60.71944803 -1.07421875 58.30078125 C-1.04618609 56.62357203 -1.01949563 54.94633989 -0.99409485 53.26908875 C-0.9236292 48.85469065 -0.83491285 44.44083991 -0.74243164 40.02685547 C-0.65127798 35.52264936 -0.57733313 31.01816468 -0.50195312 26.51367188 C-0.35150644 17.67542273 -0.18178353 8.83765624 0 0 Z " fill="#FAFCFB" transform="translate(416,445)"/>
<path d="M0 0 C4.95 0 9.9 0 15 0 C15 0.33 15 0.66 15 1 C10.71 1 6.42 1 2 1 C2 5.62 2 10.24 2 15 C5.1865625 14.9690625 5.1865625 14.9690625 8.4375 14.9375 C10.62499611 14.91626217 12.81360547 14.92741054 15 15 C16.58476052 16.58476052 16.16427317 18.22892001 16.20532227 20.42797852 C16.22526749 21.36887833 16.24521271 22.30977814 16.26576233 23.27919006 C16.28247482 24.30209641 16.29918732 25.32500275 16.31640625 26.37890625 C16.33718735 27.42070541 16.35796844 28.46250458 16.37937927 29.53587341 C16.44499057 32.87801247 16.50381331 36.22023285 16.5625 39.5625 C16.60567422 41.82227418 16.64928814 44.08204001 16.69335938 46.34179688 C16.80068367 51.89444421 16.90242812 57.44717321 17 63 C16.34 63 15.68 63 15 63 C15 47.82 15 32.64 15 17 C10.05 17 5.1 17 0 17 C0 11.39 0 5.78 0 0 Z " fill="#181D27" transform="translate(631,475)"/>
<path d="M0 0 C1.32 0.33 2.64 0.66 4 1 C4 4.3 4 7.6 4 11 C-9.86 11 -23.72 11 -38 11 C-38 10.67 -38 10.34 -38 10 C-27.77 10 -17.54 10 -7 10 C-7.33 9.01 -7.66 8.02 -8 7 C-5.38058783 5.25372522 -3.96175123 4.61277612 -1 4 C-0.67 2.68 -0.34 1.36 0 0 Z " fill="#23384E" transform="translate(292,423)"/>
<path d="M0 0 C0.33 0 0.66 0 1 0 C1.31037548 6.81731685 1.61273973 13.63495452 1.90942383 20.45288086 C2.01139959 22.77425262 2.11523806 25.0955433 2.22094727 27.41674805 C2.37220309 30.74508641 2.5168498 34.07365486 2.66015625 37.40234375 C2.70906509 38.44712387 2.75797394 39.49190399 2.80836487 40.56834412 C2.8484819 41.52926468 2.88859894 42.49018524 2.92993164 43.48022461 C2.96768204 44.33071884 3.00543243 45.18121307 3.04432678 46.05747986 C3 48 3 48 2 49 C0.36286853 49.01667674 -1.27510069 48.96299482 -2.91015625 48.87890625 C-3.89951172 48.83056641 -4.88886719 48.78222656 -5.90820312 48.73242188 C-6.94912109 48.67634766 -7.99003906 48.62027344 -9.0625 48.5625 C-10.10728516 48.51029297 -11.15207031 48.45808594 -12.22851562 48.40429688 C-14.81928236 48.27416704 -17.40970666 48.13918842 -20 48 C-20 47.67 -20 47.34 -20 47 C-13.4 47 -6.8 47 0 47 C0 31.49 0 15.98 0 0 Z " fill="#BCBFC1" transform="translate(725,512)"/>
<path d="M0 0 C0 6.27 0 12.54 0 19 C-7.59 19 -15.18 19 -23 19 C-23 18.67 -23 18.34 -23 18 C-12.605 17.505 -12.605 17.505 -2 17 C-2 12.05 -2 7.1 -2 2 C-8.93 2 -15.86 2 -23 2 C-23 1.67 -23 1.34 -23 1 C-19.54170353 0.83256252 -16.08335707 0.66618079 -12.625 0.5 C-11.64015625 0.45230469 -10.6553125 0.40460938 -9.640625 0.35546875 C-8.69960938 0.31035156 -7.75859375 0.26523437 -6.7890625 0.21875 C-5.91975098 0.17685547 -5.05043945 0.13496094 -4.15478516 0.09179688 C-2.77077412 0.03283606 -1.38526637 0 0 0 Z " fill="#B2BABF" transform="translate(689,473)"/>
<path d="M0 0 C4.73078109 3.86075239 5.71787513 10.28934652 7 16 C6.8125 19.75 6.8125 19.75 6 23 C5.79290525 24.6434827 5.60611974 26.28962531 5.4375 27.9375 C5.35371094 28.70964844 5.26992188 29.48179687 5.18359375 30.27734375 C5.12300781 30.84582031 5.06242188 31.41429687 5 32 C4.01 31.34 3.02 30.68 2 30 C1.95745644 28.00045254 1.95919217 25.99958364 2 24 C1.34 23.01 0.68 22.02 0 21 C0.66 21 1.32 21 2 21 C2 19.35 2 17.7 2 16 C2.66 16 3.32 16 4 16 C3.71517632 14.58194169 3.42181856 13.16559621 3.125 11.75 C2.96257813 10.96109375 2.80015625 10.1721875 2.6328125 9.359375 C2.08209363 6.98229161 2.08209363 6.98229161 0.9296875 4.890625 C0 3 0 3 0 0 Z " fill="#182638" transform="translate(525,488)"/>
<path d="M0 0 C0.33 0 0.66 0 1 0 C1.12806208 15.70238071 0.87193986 31.32065292 0 47 C-0.33 47 -0.66 47 -1 47 C-1.19331179 40.62828282 -1.37078672 34.25626754 -1.53710938 27.88378906 C-1.59560931 25.71474153 -1.65777217 23.54578964 -1.72363281 21.37695312 C-1.81751851 18.26450002 -1.89834624 15.1519438 -1.9765625 12.0390625 C-2.00875885 11.065065 -2.0409552 10.0910675 -2.0741272 9.08755493 C-2.09429901 8.18677216 -2.11447083 7.28598938 -2.13525391 6.35791016 C-2.15746002 5.56293121 -2.17966614 4.76795227 -2.20254517 3.94888306 C-2 2 -2 2 0 0 Z " fill="#1A7959" transform="translate(297,457)"/>
<path d="M0 0 C0.99 0.33 1.98 0.66 3 1 C3 2.98 3 4.96 3 7 C-4.26 7 -11.52 7 -19 7 C-19 6.34 -19 5.68 -19 5 C-10.585 4.505 -10.585 4.505 -2 4 C-2 3.34 -2 2.68 -2 2 C-1.34 2 -0.68 2 0 2 C0 1.34 0 0.68 0 0 Z " fill="#3A9372" transform="translate(294,566)"/>
<path d="M0 0 C0.33 0 0.66 0 1 0 C1 9.57 1 19.14 1 29 C0.67 29 0.34 29 0 29 C0 27.02 0 25.04 0 23 C-1.32 24.32 -2.64 25.64 -4 27 C-4.66 26.67 -5.32 26.34 -6 26 C-6 24.68 -6 23.36 -6 22 C-5.34 22 -4.68 22 -4 22 C-3.690625 21.360625 -3.38125 20.72125 -3.0625 20.0625 C-2 18 -2 18 -1 17 C-0.76298761 14.14122091 -0.57780818 11.30116703 -0.4375 8.4375 C-0.37272461 7.22803711 -0.37272461 7.22803711 -0.30664062 5.99414062 C-0.20024738 3.99631195 -0.09959112 1.9981793 0 0 Z " fill="#23384F" transform="translate(723,464)"/>
<path d="M0 0 C0.33 0 0.66 0 1 0 C1 6.6 1 13.2 1 20 C-10.5 20.25 -10.5 20.25 -15 18 C-10.38 18 -5.76 18 -1 18 C-1.020625 16.14375 -1.04125 14.2875 -1.0625 12.375 C-1.06751384 8.1332894 -0.92434552 4.15955482 0 0 Z " fill="#308869" transform="translate(201,553)"/>
<path d="M0 0 C0.33 0 0.66 0 1 0 C1 9.57 1 19.14 1 29 C0.67 29 0.34 29 0 29 C0 24.71 0 20.42 0 16 C-1.32 15.34 -2.64 14.68 -4 14 C-2.68 13.67 -1.36 13.34 0 13 C0 9.7 0 6.4 0 3 C-0.66 2.67 -1.32 2.34 -2 2 C-1.34 1.34 -0.68 0.68 0 0 Z " fill="#3C8C70" transform="translate(295,460)"/>
<path d="M0 0 C0.66 0.33 1.32 0.66 2 1 C1.030625 1.86625 0.06125 2.7325 -0.9375 3.625 C-3.91504038 6.56751049 -4.79692286 8.73538008 -5 13 C-5.99 12.67 -6.98 12.34 -8 12 C-8.33 12.99 -8.66 13.98 -9 15 C-9.33 14.01 -9.66 13.02 -10 12 C-8.671875 9.84375 -8.671875 9.84375 -6.75 7.5 C-6.12609375 6.7265625 -5.5021875 5.953125 -4.859375 5.15625 C-3.30253752 3.35084183 -1.71600221 1.65244658 0 0 Z M-4 8 C-2 9 -2 9 -2 9 Z " fill="#0F1726" transform="translate(469,482)"/>
<path d="M0 0 C0 4.95 0 9.9 0 15 C-0.33 15 -0.66 15 -1 15 C-1.33 10.71 -1.66 6.42 -2 2 C-5.3 2 -8.6 2 -12 2 C-12 1.67 -12 1.34 -12 1 C-7.915021 0.45533613 -4.1274515 0 0 0 Z " fill="#050A15" transform="translate(687,542)"/>
<path d="M0 0 C2.475 0.495 2.475 0.495 5 1 C4.67 1.66 4.34 2.32 4 3 C6.97 3.495 6.97 3.495 10 4 C9.67 4.99 9.34 5.98 9 7 C8.34 7 7.68 7 7 7 C7.33 8.32 7.66 9.64 8 11 C4.32966073 7.72291137 2.30718811 4.28477792 0 0 Z " fill="#142031" transform="translate(367,480)"/>
<path d="M0 0 C0.66 0.99 1.32 1.98 2 3 C1.175 3.598125 0.35 4.19625 -0.5 4.8125 C-1.7375 5.8953125 -1.7375 5.8953125 -3 7 C-3 7.99 -3 8.98 -3 10 C-4.32 9.67 -5.64 9.34 -7 9 C-4.69 6.03 -2.38 3.06 0 0 Z M2 1 C5 2 5 2 5 2 Z " fill="#131D2F" transform="translate(569,518)"/>
<path d="M0 0 C2.64 0 5.28 0 8 0 C8 0.99 8 1.98 8 3 C4.04 3 0.08 3 -4 3 C-2.68 2.67 -1.36 2.34 0 2 C0 1.34 0 0.68 0 0 Z " fill="#EDEFEE" transform="translate(497,542)"/>
<path d="M0 0 C0.66 0.33 1.32 0.66 2 1 C2.62599243 4.38035912 3 7.56169885 3 11 C1.02 8.36 -0.96 5.72 -3 3 C-2 1 -2 1 0 0 Z " fill="#152030" transform="translate(565,502)"/>
<path d="M0 0 C2 1 2 1 3 3 C2.34 3 1.68 3 1 3 C0.34 4.32 -0.32 5.64 -1 7 C-2.65 6.67 -4.3 6.34 -6 6 C-4 4 -2 2 0 0 Z " fill="#226D4F" transform="translate(274,474)"/>
<path d="M0 0 C0.66 0.33 1.32 0.66 2 1 C-2.18461538 6.78461538 -2.18461538 6.78461538 -6.3125 7.875 C-7.6428125 7.936875 -7.6428125 7.936875 -9 8 C-6.14723863 5.06799526 -3.34920216 2.35684596 0 0 Z " fill="#206B4C" transform="translate(293,460)"/>
<path d="M0 0 C3.12436746 2.08291164 3.5365026 2.61276477 4.75 5.9375 C5.14445313 6.97197266 5.14445313 6.97197266 5.546875 8.02734375 C6 10 6 10 5 13 C0.59225513 4.738041 0.59225513 4.738041 0 0 Z " fill="#E5E7E9" transform="translate(158,548)"/>
<path d="M0 0 C6.27 0 12.54 0 19 0 C19 0.99 19 1.98 19 3 C18.34 2.67 17.68 2.34 17 2 C14.12089412 1.76725791 11.25853505 1.58027243 8.375 1.4375 C7.57320312 1.39431641 6.77140625 1.35113281 5.9453125 1.30664062 C3.9637489 1.20048543 1.98189729 1.09973145 0 1 C0 0.67 0 0.34 0 0 Z " fill="#273C53" transform="translate(601,476)"/>
<path d="M0 0 C0.625 1.8125 0.625 1.8125 1 4 C0.01 5.485 0.01 5.485 -1 7 C-2.65 6.67 -4.3 6.34 -6 6 C-4 4 -2 2 0 0 Z " fill="#226A4E" transform="translate(201,545)"/>
<path d="M0 0 C0.66 0.33 1.32 0.66 2 1 C2 1.66 2 2.32 2 3 C1.34 3 0.68 3 0 3 C0.33 3.99 0.66 4.98 1 6 C-0.4375 8.6875 -0.4375 8.6875 -2 11 C-2.95465783 8.83032311 -3.14401212 7.43671207 -2.3984375 5.17578125 C-1.64129615 3.4315257 -0.82390802 1.71372869 0 0 Z " fill="#EBEEEE" transform="translate(478,497)"/>
<path d="M0 0 C1.485 0.99 1.485 0.99 3 2 C3 2.66 3 3.32 3 4 C3.99 4 4.98 4 6 4 C6.66 6.31 7.32 8.62 8 11 C2.19794344 5.35475578 2.19794344 5.35475578 0 2 C0 1.34 0 0.68 0 0 Z " fill="#111723" transform="translate(193,497)"/>
<path d="M0 0 C0.66 0 1.32 0 2 0 C3.32421875 1.390625 3.32421875 1.390625 4.6875 3.25 C5.14511719 3.85328125 5.60273438 4.4565625 6.07421875 5.078125 C7 7 7 7 6.64453125 9.234375 C6.43183594 9.81703125 6.21914063 10.3996875 6 11 C4.9944239 9.54550599 3.99569565 8.08627557 3 6.625 C2.443125 5.81289063 1.88625 5.00078125 1.3125 4.1640625 C0 2 0 2 0 0 Z " fill="#EEEFEF" transform="translate(388,477)"/>
<path d="M0 0 C0.66 0.33 1.32 0.66 2 1 C2.40729228 3.32156597 2.74438677 5.6568787 3 8 C2.01 8.495 2.01 8.495 1 9 C-0.06775224 7.03533587 -1.06553465 5.03144641 -2 3 C-1 1 -1 1 0 0 Z " fill="#E0E2E3" transform="translate(477,526)"/>
<path d="M0 0 C0.99 0.495 0.99 0.495 2 1 C1.01 1.495 1.01 1.495 0 2 C0 1.34 0 0.68 0 0 Z M-1 2 C-0.01 2.99 0.98 3.98 2 5 C1.01 5.99 0.02 6.98 -1 8 C-1.66 6.68 -2.32 5.36 -3 4 C-2.34 3.34 -1.68 2.68 -1 2 Z " fill="#EAEDEC" transform="translate(595,511)"/>
<path d="M0 0 C-0.33 0.66 -0.66 1.32 -1 2 C-3.06640625 2.4140625 -3.06640625 2.4140625 -5.5625 2.625 C-6.38878906 2.69976562 -7.21507812 2.77453125 -8.06640625 2.8515625 C-9.02353516 2.92503906 -9.02353516 2.92503906 -10 3 C-6.81859267 -0.48439851 -4.56758339 -1.41752588 0 0 Z " fill="#121B2A" transform="translate(867,475)"/>
<path d="M0 0 C0.33 0 0.66 0 1 0 C1.08159574 4.16138263 0.98248524 7.9472484 0 12 C-0.33 12 -0.66 12 -1 12 C-1.22162329 10.37675914 -1.42689803 8.751279 -1.625 7.125 C-1.74101562 6.22007812 -1.85703125 5.31515625 -1.9765625 4.3828125 C-1.98429687 3.59648437 -1.99203125 2.81015625 -2 2 C-1.34 1.34 -0.68 0.68 0 0 Z " fill="#126E4B" transform="translate(297,457)"/>
<path d="M0 0 C0.33 0.66 0.66 1.32 1 2 C0.34 2 -0.32 2 -1 2 C-1.66 3.32 -2.32 4.64 -3 6 C-4.32 5.34 -5.64 4.68 -7 4 C-4.61426621 2.10786631 -2.92824652 0.97608217 0 0 Z " fill="#16202E" transform="translate(237,409)"/>
<path d="M0 0 C0.66 0.33 1.32 0.66 2 1 C1.01 2.98 0.02 4.96 -1 7 C-1.99 7 -2.98 7 -4 7 C-2.92598892 4.08482708 -2.22189824 2.22189824 0 0 Z " fill="#236F52" transform="translate(266,480)"/>
<path d="M0 0 C3.15140423 0.34069235 4.60781561 0.58076841 6.8125 2.9375 C8 5 8 5 8 7 C7.34 7 6.68 7 6 7 C5.938125 6.38125 5.87625 5.7625 5.8125 5.125 C5.171081 2.72238859 5.171081 2.72238859 2.4375 1.75 C1.633125 1.5025 0.82875 1.255 0 1 C0 0.67 0 0.34 0 0 Z " fill="#E2E4E5" transform="translate(807,442)"/>
</svg>
